<?xml version="1.0" encoding="UTF-8" standalone="no"?>
<!-- This is a Stata 16.0 generated SVG file (http://www.stata.com) -->

<svg version="1.1" width="5.50in" height="4.00in" viewBox="0 0 3960 2880" xmlns="http://www.w3.org/2000/svg" xmlns:xlink="http://www.w3.org/1999/xlink">
	<desc>Language Skills Graph</desc>
	<rect x="0" y="0" width="3960" height="2880" style="fill:#EAF2F3;stroke:none"/>
	<rect x="0.00" y="0.00" width="3959.88" height="2880.00" style="fill:#FFFFFF"/>
	<rect x="2.88" y="2.88" width="3954.12" height="2874.24" style="fill:none;stroke:#EAF2F3;stroke-width:5.76"/>
	<rect x="390.80" y="275.35" width="3468.22" height="2280.54" style="fill:#FFFFFF"/>
	<rect x="393.68" y="278.23" width="3462.46" height="2274.78" style="fill:none;stroke:#FFFFFF;stroke-width:5.76"/>
	<line x1="390.80" y1="2555.89" x2="3859.02" y2="2555.89" style="stroke:#EAF2F3;stroke-width:8.64"/>
	<line x1="390.80" y1="2011.00" x2="3859.02" y2="2011.00" style="stroke:#EAF2F3;stroke-width:8.64"/>
	<line x1="390.80" y1="1465.99" x2="3859.02" y2="1465.99" style="stroke:#EAF2F3;stroke-width:8.64"/>
	<line x1="390.80" y1="921.10" x2="3859.02" y2="921.10" style="stroke:#EAF2F3;stroke-width:8.64"/>
	<line x1="542.64" y1="2555.89" x2="542.64" y2="275.35" style="stroke:#EAF2F3;stroke-width:8.64"/>
	<line x1="664.29" y1="2555.89" x2="664.29" y2="275.35" style="stroke:#EAF2F3;stroke-width:8.64"/>
	<line x1="786.06" y1="2555.89" x2="786.06" y2="275.35" style="stroke:#EAF2F3;stroke-width:8.64"/>
	<line x1="907.71" y1="2555.89" x2="907.71" y2="275.35" style="stroke:#EAF2F3;stroke-width:8.64"/>
	<line x1="1029.48" y1="2555.89" x2="1029.48" y2="275.35" style="stroke:#EAF2F3;stroke-width:8.64"/>
	<line x1="1151.25" y1="2555.89" x2="1151.25" y2="275.35" style="stroke:#EAF2F3;stroke-width:8.64"/>
	<line x1="1272.89" y1="2555.89" x2="1272.89" y2="275.35" style="stroke:#EAF2F3;stroke-width:8.64"/>
	<line x1="1394.66" y1="2555.89" x2="1394.66" y2="275.35" style="stroke:#EAF2F3;stroke-width:8.64"/>
	<line x1="1516.31" y1="2555.89" x2="1516.31" y2="275.35" style="stroke:#EAF2F3;stroke-width:8.64"/>
	<line x1="1638.08" y1="2555.89" x2="1638.08" y2="275.35" style="stroke:#EAF2F3;stroke-width:8.64"/>
	<line x1="1759.72" y1="2555.89" x2="1759.72" y2="275.35" style="stroke:#EAF2F3;stroke-width:8.64"/>
	<line x1="1881.49" y1="2555.89" x2="1881.49" y2="275.35" style="stroke:#EAF2F3;stroke-width:8.64"/>
	<line x1="2003.27" y1="2555.89" x2="2003.27" y2="275.35" style="stroke:#EAF2F3;stroke-width:8.64"/>
	<line x1="2124.91" y1="2555.89" x2="2124.91" y2="275.35" style="stroke:#EAF2F3;stroke-width:8.64"/>
	<line x1="2246.68" y1="2555.89" x2="2246.68" y2="275.35" style="stroke:#EAF2F3;stroke-width:8.64"/>
	<line x1="2368.33" y1="2555.89" x2="2368.33" y2="275.35" style="stroke:#EAF2F3;stroke-width:8.64"/>
	<line x1="2490.10" y1="2555.89" x2="2490.10" y2="275.35" style="stroke:#EAF2F3;stroke-width:8.64"/>
	<line x1="2611.74" y1="2555.89" x2="2611.74" y2="275.35" style="stroke:#EAF2F3;stroke-width:8.64"/>
	<line x1="2733.51" y1="2555.89" x2="2733.51" y2="275.35" style="stroke:#EAF2F3;stroke-width:8.64"/>
	<line x1="2855.28" y1="2555.89" x2="2855.28" y2="275.35" style="stroke:#EAF2F3;stroke-width:8.64"/>
	<line x1="2976.93" y1="2555.89" x2="2976.93" y2="275.35" style="stroke:#EAF2F3;stroke-width:8.64"/>
	<line x1="3098.70" y1="2555.89" x2="3098.70" y2="275.35" style="stroke:#EAF2F3;stroke-width:8.64"/>
	<line x1="3220.35" y1="2555.89" x2="3220.35" y2="275.35" style="stroke:#EAF2F3;stroke-width:8.64"/>
	<line x1="3342.12" y1="2555.89" x2="3342.12" y2="275.35" style="stroke:#EAF2F3;stroke-width:8.64"/>
	<line x1="3463.89" y1="2555.89" x2="3463.89" y2="275.35" style="stroke:#EAF2F3;stroke-width:8.64"/>
	<line x1="3585.53" y1="2555.89" x2="3585.53" y2="275.35" style="stroke:#EAF2F3;stroke-width:8.64"/>
	<line x1="3707.30" y1="2555.89" x2="3707.30" y2="275.35" style="stroke:#EAF2F3;stroke-width:8.64"/>
	<line x1="390.80" y1="1711.39" x2="3859.02" y2="1711.39" style="stroke:#C10534;stroke-width:8.64"/>
	<rect x="506.14" y="715.42" width="72.89" height="1840.47" style="fill:#505050"/>
	<rect x="509.02" y="718.30" width="67.13" height="1834.71" style="fill:none;stroke:#505050;stroke-width:5.76"/>
	<rect x="627.91" y="925.31" width="72.89" height="1630.58" style="fill:#505050"/>
	<rect x="630.79" y="928.19" width="67.13" height="1624.82" style="fill:none;stroke:#505050;stroke-width:5.76"/>
	<rect x="749.55" y="1078.76" width="72.89" height="1477.13" style="fill:#505050"/>
	<rect x="752.43" y="1081.64" width="67.13" height="1471.37" style="fill:none;stroke:#505050;stroke-width:5.76"/>
	<rect x="871.32" y="1344.83" width="72.89" height="1211.06" style="fill:#505050"/>
	<rect x="874.20" y="1347.71" width="67.13" height="1205.30" style="fill:none;stroke:#505050;stroke-width:5.76"/>
	<rect x="992.97" y="1393.22" width="72.89" height="1162.67" style="fill:#505050"/>
	<rect x="995.85" y="1396.10" width="67.13" height="1156.91" style="fill:none;stroke:#505050;stroke-width:5.76"/>
	<rect x="1114.74" y="1524.15" width="72.89" height="1031.74" style="fill:#505050"/>
	<rect x="1117.62" y="1527.03" width="67.13" height="1025.98" style="fill:none;stroke:#505050;stroke-width:5.76"/>
	<rect x="1236.51" y="1535.79" width="72.89" height="1020.10" style="fill:#505050"/>
	<rect x="1239.39" y="1538.67" width="67.13" height="1014.34" style="fill:none;stroke:#505050;stroke-width:5.76"/>
	<rect x="1358.16" y="1656.07" width="72.89" height="899.81" style="fill:#505050"/>
	<rect x="1361.04" y="1658.95" width="67.13" height="894.05" style="fill:none;stroke:#505050;stroke-width:5.76"/>
	<rect x="1479.93" y="1657.56" width="72.89" height="898.33" style="fill:#505050"/>
	<rect x="1482.81" y="1660.44" width="67.13" height="892.57" style="fill:none;stroke:#505050;stroke-width:5.76"/>
	<rect x="1601.57" y="1706.44" width="72.89" height="849.45" style="fill:#505050"/>
	<rect x="1604.45" y="1709.32" width="67.13" height="843.69" style="fill:none;stroke:#505050;stroke-width:5.76"/>
	<rect x="1723.34" y="1707.56" width="72.89" height="848.33" style="fill:#505050"/>
	<rect x="1726.22" y="1710.44" width="67.13" height="842.57" style="fill:none;stroke:#505050;stroke-width:5.76"/>
	<rect x="1845.11" y="1709.16" width="72.77" height="846.72" style="fill:#505050"/>
	<rect x="1847.99" y="1712.04" width="67.01" height="840.96" style="fill:none;stroke:#505050;stroke-width:5.76"/>
	<rect x="1966.76" y="1711.27" width="72.89" height="844.62" style="fill:#505050"/>
	<rect x="1969.64" y="1714.15" width="67.13" height="838.86" style="fill:none;stroke:#505050;stroke-width:5.76"/>
	<rect x="2088.53" y="1728.10" width="72.89" height="827.79" style="fill:#505050"/>
	<rect x="2091.41" y="1730.98" width="67.13" height="822.03" style="fill:none;stroke:#505050;stroke-width:5.76"/>
	<rect x="2210.18" y="1731.19" width="72.89" height="824.70" style="fill:#505050"/>
	<rect x="2213.05" y="1734.07" width="67.13" height="818.94" style="fill:none;stroke:#505050;stroke-width:5.76"/>
	<rect x="2331.95" y="1738.62" width="72.89" height="817.27" style="fill:#505050"/>
	<rect x="2334.82" y="1741.50" width="67.13" height="811.51" style="fill:none;stroke:#505050;stroke-width:5.76"/>
	<rect x="2453.59" y="1742.08" width="72.89" height="813.81" style="fill:#505050"/>
	<rect x="2456.47" y="1744.96" width="67.13" height="808.05" style="fill:none;stroke:#505050;stroke-width:5.76"/>
	<rect x="2575.36" y="1757.06" width="72.89" height="798.83" style="fill:#505050"/>
	<rect x="2578.24" y="1759.94" width="67.13" height="793.07" style="fill:none;stroke:#505050;stroke-width:5.76"/>
	<rect x="2697.13" y="1765.10" width="72.89" height="790.79" style="fill:#505050"/>
	<rect x="2700.01" y="1767.98" width="67.13" height="785.03" style="fill:none;stroke:#505050;stroke-width:5.76"/>
	<rect x="2818.78" y="1775.25" width="72.89" height="780.64" style="fill:#505050"/>
	<rect x="2821.66" y="1778.13" width="67.13" height="774.88" style="fill:none;stroke:#505050;stroke-width:5.76"/>
	<rect x="2940.55" y="1808.91" width="72.89" height="746.98" style="fill:#505050"/>
	<rect x="2943.43" y="1811.79" width="67.13" height="741.22" style="fill:none;stroke:#505050;stroke-width:5.76"/>
	<rect x="3062.19" y="1816.83" width="72.89" height="739.06" style="fill:#505050"/>
	<rect x="3065.07" y="1819.71" width="67.13" height="733.30" style="fill:none;stroke:#505050;stroke-width:5.76"/>
	<rect x="3183.96" y="1860.02" width="72.89" height="695.87" style="fill:#505050"/>
	<rect x="3186.84" y="1862.90" width="67.13" height="690.11" style="fill:none;stroke:#505050;stroke-width:5.76"/>
	<rect x="3305.61" y="1871.65" width="72.89" height="684.24" style="fill:#505050"/>
	<rect x="3308.49" y="1874.53" width="67.13" height="678.48" style="fill:none;stroke:#505050;stroke-width:5.76"/>
	<rect x="3427.38" y="1880.32" width="72.89" height="675.57" style="fill:#505050"/>
	<rect x="3430.26" y="1883.20" width="67.13" height="669.81" style="fill:none;stroke:#505050;stroke-width:5.76"/>
	<rect x="3549.15" y="1922.89" width="72.89" height="633.00" style="fill:#505050"/>
	<rect x="3552.03" y="1925.77" width="67.13" height="627.24" style="fill:none;stroke:#505050;stroke-width:5.76"/>
	<rect x="3670.80" y="2077.70" width="72.89" height="478.18" style="fill:#505050"/>
	<rect x="3673.68" y="2080.58" width="67.13" height="472.43" style="fill:none;stroke:#505050;stroke-width:5.76"/>
	<line x1="390.80" y1="2555.89" x2="390.80" y2="275.35" style="stroke:#000000;stroke-width:5.76"/>
	<line x1="390.80" y1="2555.89" x2="350.83" y2="2555.89" style="stroke:#000000;stroke-width:5.76"/>
	<text x="300.72" y="2555.89" style="font-family:'Helvetica';font-size:99.99px;fill:#000000" transform="rotate(-90 300.72,2555.89)" text-anchor="middle">0</text>
	<line x1="390.80" y1="2011.00" x2="350.83" y2="2011.00" style="stroke:#000000;stroke-width:5.76"/>
	<text x="300.72" y="2011.00" style="font-family:'Helvetica';font-size:99.99px;fill:#000000" transform="rotate(-90 300.72,2011.00)" text-anchor="middle">200000</text>
	<line x1="390.80" y1="1465.99" x2="350.83" y2="1465.99" style="stroke:#000000;stroke-width:5.76"/>
	<text x="300.72" y="1465.99" style="font-family:'Helvetica';font-size:99.99px;fill:#000000" transform="rotate(-90 300.72,1465.99)" text-anchor="middle">400000</text>
	<line x1="390.80" y1="921.10" x2="350.83" y2="921.10" style="stroke:#000000;stroke-width:5.76"/>
	<text x="300.72" y="921.10" style="font-family:'Helvetica';font-size:99.99px;fill:#000000" transform="rotate(-90 300.72,921.10)" text-anchor="middle">600000</text>
	<line x1="390.80" y1="376.21" x2="350.83" y2="376.21" style="stroke:#000000;stroke-width:5.76"/>
	<text x="300.72" y="376.21" style="font-family:'Helvetica';font-size:99.99px;fill:#000000" transform="rotate(-90 300.72,376.21)" text-anchor="middle">800000</text>
	<text x="190.71" y="1415.62" style="font-family:'Helvetica';font-size:99.99px;fill:#000000" transform="rotate(-90 190.71,1415.62)" text-anchor="middle">Average Total Value ($)</text>
	<line x1="390.80" y1="2555.89" x2="3859.02" y2="2555.89" style="stroke:#000000;stroke-width:5.76"/>
	<text x="570.65" y="2595.86" style="font-family:'Helvetica';font-size:79.94px;fill:#000000" transform="rotate(-90 570.65,2595.86)" text-anchor="end">111</text>
	<text x="692.30" y="2595.86" style="font-family:'Helvetica';font-size:79.94px;fill:#000000" transform="rotate(-90 692.30,2595.86)" text-anchor="end">273</text>
	<text x="814.07" y="2595.86" style="font-family:'Helvetica';font-size:79.94px;fill:#000000" transform="rotate(-90 814.07,2595.86)" text-anchor="end">278</text>
	<text x="935.72" y="2595.86" style="font-family:'Helvetica';font-size:79.94px;fill:#000000" transform="rotate(-90 935.72,2595.86)" text-anchor="end">284</text>
	<text x="1057.49" y="2595.86" style="font-family:'Helvetica';font-size:79.94px;fill:#000000" transform="rotate(-90 1057.49,2595.86)" text-anchor="end">276</text>
	<text x="1179.26" y="2595.86" style="font-family:'Helvetica';font-size:79.94px;fill:#000000" transform="rotate(-90 1179.26,2595.86)" text-anchor="end">272</text>
	<text x="1300.90" y="2595.86" style="font-family:'Helvetica';font-size:79.94px;fill:#000000" transform="rotate(-90 1300.90,2595.86)" text-anchor="end">877</text>
	<text x="1422.67" y="2595.86" style="font-family:'Helvetica';font-size:79.94px;fill:#000000" transform="rotate(-90 1422.67,2595.86)" text-anchor="end">270</text>
	<text x="1544.32" y="2595.86" style="font-family:'Helvetica';font-size:79.94px;fill:#000000" transform="rotate(-90 1544.32,2595.86)" text-anchor="end">621</text>
	<text x="1666.09" y="2595.86" style="font-family:'Helvetica';font-size:79.94px;fill:#000000" transform="rotate(-90 1666.09,2595.86)" text-anchor="end">283</text>
	<text x="1787.74" y="2595.86" style="font-family:'Helvetica';font-size:79.94px;fill:#000000" transform="rotate(-90 1787.74,2595.86)" text-anchor="end">1</text>
	<text x="1909.51" y="2595.86" style="font-family:'Helvetica';font-size:79.94px;fill:#000000" transform="rotate(-90 1909.51,2595.86)" text-anchor="end">883</text>
	<text x="2031.28" y="2595.86" style="font-family:'Helvetica';font-size:79.94px;fill:#000000" transform="rotate(-90 2031.28,2595.86)" text-anchor="end">728</text>
	<text x="2152.92" y="2595.86" style="font-family:'Helvetica';font-size:79.94px;fill:#000000" transform="rotate(-90 2152.92,2595.86)" text-anchor="end">110</text>
	<text x="2274.69" y="2595.86" style="font-family:'Helvetica';font-size:79.94px;fill:#000000" transform="rotate(-90 2274.69,2595.86)" text-anchor="end">277</text>
	<text x="2396.34" y="2595.86" style="font-family:'Helvetica';font-size:79.94px;fill:#000000" transform="rotate(-90 2396.34,2595.86)" text-anchor="end">282</text>
	<text x="2518.11" y="2595.86" style="font-family:'Helvetica';font-size:79.94px;fill:#000000" transform="rotate(-90 2518.11,2595.86)" text-anchor="end">879</text>
	<text x="2639.75" y="2595.86" style="font-family:'Helvetica';font-size:79.94px;fill:#000000" transform="rotate(-90 2639.75,2595.86)" text-anchor="end">623</text>
	<text x="2761.52" y="2595.86" style="font-family:'Helvetica';font-size:79.94px;fill:#000000" transform="rotate(-90 2761.52,2595.86)" text-anchor="end">624</text>
	<text x="2883.29" y="2595.86" style="font-family:'Helvetica';font-size:79.94px;fill:#000000" transform="rotate(-90 2883.29,2595.86)" text-anchor="end">271</text>
	<text x="3004.94" y="2595.86" style="font-family:'Helvetica';font-size:79.94px;fill:#000000" transform="rotate(-90 3004.94,2595.86)" text-anchor="end">279</text>
	<text x="3126.71" y="2595.86" style="font-family:'Helvetica';font-size:79.94px;fill:#000000" transform="rotate(-90 3126.71,2595.86)" text-anchor="end">11</text>
	<text x="3248.36" y="2595.86" style="font-family:'Helvetica';font-size:79.94px;fill:#000000" transform="rotate(-90 3248.36,2595.86)" text-anchor="end">625</text>
	<text x="3370.13" y="2595.86" style="font-family:'Helvetica';font-size:79.94px;fill:#000000" transform="rotate(-90 3370.13,2595.86)" text-anchor="end">622</text>
	<text x="3491.90" y="2595.86" style="font-family:'Helvetica';font-size:79.94px;fill:#000000" transform="rotate(-90 3491.90,2595.86)" text-anchor="end">281</text>
	<text x="3613.54" y="2595.86" style="font-family:'Helvetica';font-size:79.94px;fill:#000000" transform="rotate(-90 3613.54,2595.86)" text-anchor="end">280</text>
	<text x="3735.31" y="2595.86" style="font-family:'Helvetica';font-size:79.94px;fill:#000000" transform="rotate(-90 3735.31,2595.86)" text-anchor="end">286</text>
	<text x="2124.91" y="215.98" style="font-family:'Helvetica';font-size:139.96px;fill:#404040" text-anchor="middle">School Districts by Mean Total Property Value</text>
</svg>
